<?xml version="1.0" encoding="utf-8"?>
<!-- Generator: Adobe Illustrator 20.1.0, SVG Export Plug-In . SVG Version: 6.00 Build 0)  -->
<!DOCTYPE svg PUBLIC "-//W3C//DTD SVG 1.1//EN" "http://www.w3.org/Graphics/SVG/1.1/DTD/svg11.dtd">
<svg version="1.1" id="Layer_1" xmlns="http://www.w3.org/2000/svg" xmlns:xlink="http://www.w3.org/1999/xlink" x="0px" y="0px"
	 viewBox="0 0 314.5 115.3" style="enable-background:new 0 0 314.5 115.3;" xml:space="preserve">
<style type="text/css">
	.st0{fill:#ED1C24;}
</style>
<g>
	<g>
		<path d="M0,115.3V36.7h39.3c7,14.3,14.1,28.7,19.2,39.8h0.8c-0.6-6.6-0.7-19-0.7-32v-7.7H89v78.6H51.5
			C46,104.2,35.2,79.8,30.1,69.1h-0.7c0.9,7.8,1,16.9,1,35v11.3H0z"/>
		<path d="M124.7,115.3V88.9c0-1.6-0.3-2.2-1.3-3.8L93.2,36.7H133c4.4,9.9,6.9,17.8,10.7,27.4c3.2-9,5.9-16,10.6-27.4h36.4l-30.7,49
			c-0.4,0.8-0.9,1.9-0.9,3.8v25.8H124.7z"/>
	</g>
	<g>
		<path d="M193.2,100.5l14.3,6.6c0.6,0.3,1,0.5,1.2,0.8c0.2,0.3,0.4,0.6,0.4,0.9c0,0.4-0.1,0.7-0.3,0.9c-0.2,0.2-0.5,0.3-0.9,0.3
			c-0.2,0-0.4,0-0.6-0.1c-0.2-0.1-0.5-0.2-0.9-0.4l-15.5-7.2c-0.1,0-0.1,0-0.2-0.1c-1.2-0.5-1.8-1.1-1.8-1.8c0-0.7,0.6-1.2,1.8-1.8
			c0.1-0.1,0.2-0.1,0.2-0.1l15.5-7.1c0.3-0.2,0.7-0.3,0.9-0.4c0.2-0.1,0.5-0.1,0.6-0.1c0.4,0,0.7,0.1,0.9,0.3
			c0.2,0.2,0.3,0.5,0.3,0.9c0,0.4-0.1,0.7-0.4,0.9c-0.2,0.3-0.7,0.5-1.2,0.8L193.2,100.5z"/>
		<path d="M217.3,108.5v-3.5c0-0.6,0.1-1,0.3-1.2c0.2-0.2,0.6-0.4,1-0.4c0.5,0,1,0.4,1.3,1.1c0.2,0.4,0.4,0.8,0.6,1
			c0.5,0.7,1.3,1.3,2.4,1.7c1.1,0.4,2.2,0.6,3.5,0.6c1.4,0,2.5-0.3,3.3-0.8c0.8-0.6,1.2-1.3,1.2-2.2c0-0.9-0.3-1.6-1-2
			c-0.7-0.4-1.8-0.6-3.4-0.6h-1.1c-2.7,0-4.7-0.5-6.1-1.4c-1.4-0.9-2.1-2.3-2.1-4c0-1.7,0.7-3,2-4c1.4-1,3.3-1.4,5.7-1.4
			c1,0,2,0.1,3.1,0.4s1.6,0.4,1.6,0.4c0.1,0,0.4-0.1,0.8-0.4c0.4-0.3,0.8-0.4,1.2-0.4c0.4,0,0.8,0.2,1,0.5c0.2,0.3,0.3,0.8,0.3,1.5
			v2.3c0,0.7-0.1,1.2-0.3,1.5c-0.2,0.3-0.5,0.5-1,0.5c-0.4,0-0.9-0.3-1.4-1c-0.4-0.5-0.7-0.8-1-1c-0.7-0.6-1.4-1.1-2.2-1.4
			c-0.8-0.3-1.7-0.4-2.7-0.4c-1.2,0-2.2,0.3-3,0.8c-0.7,0.5-1.1,1.2-1.1,2.1c0,0.8,0.4,1.4,1.2,1.8c0.8,0.4,2.4,0.6,4.9,0.6
			c2.7,0.1,4.7,0.5,5.9,1.4c1.2,0.9,1.9,2.2,1.9,4.1c0,1.8-0.7,3.2-2.1,4.2c-1.4,1.1-3.2,1.6-5.6,1.6c-0.7,0-1.6-0.1-2.5-0.2
			c-0.9-0.1-2.1-0.4-3.4-0.7c-0.5,0.3-0.8,0.5-1.2,0.7c-0.3,0.1-0.6,0.2-0.8,0.2c-0.5,0-0.8-0.2-1-0.5
			C217.4,109.6,217.3,109.1,217.3,108.5z"/>
		<path d="M245.6,101.8c0.1,1.9,0.7,3.3,1.9,4.4c1.2,1,2.8,1.5,4.8,1.5c1.5,0,3.2-0.4,5-1.2c1.8-0.8,2.9-1.2,3.3-1.2
			c0.4,0,0.7,0.1,1,0.4c0.3,0.2,0.4,0.6,0.4,0.9c0,0.4-0.1,0.7-0.4,1c-0.3,0.3-0.7,0.6-1.3,0.9c-1.3,0.6-2.6,1.1-4,1.5
			s-2.8,0.5-4.1,0.5c-3,0-5.3-0.9-7.1-2.6c-1.8-1.7-2.7-4-2.7-6.8c0-2.9,0.9-5.2,2.8-7c1.9-1.8,4.3-2.7,7.4-2.7c2.7,0,5,0.8,6.8,2.5
			c1.8,1.7,2.7,3.7,2.7,6c0,0.7-0.2,1.2-0.5,1.5c-0.3,0.2-1.1,0.4-2.5,0.4h-0.3H245.6z M245.7,99.2h12.7c-0.2-1.5-0.8-2.8-1.9-3.7
			c-1.1-0.9-2.4-1.4-4-1.4c-1.7,0-3.2,0.5-4.4,1.4C246.8,96.4,246,97.6,245.7,99.2z"/>
		<path d="M271.9,101.8c0.1,1.9,0.7,3.3,1.9,4.4c1.2,1,2.8,1.5,4.8,1.5c1.5,0,3.2-0.4,5-1.2c1.8-0.8,2.9-1.2,3.3-1.2
			c0.4,0,0.7,0.1,1,0.4c0.3,0.2,0.4,0.6,0.4,0.9c0,0.4-0.1,0.7-0.4,1c-0.3,0.3-0.7,0.6-1.3,0.9c-1.3,0.6-2.6,1.1-4,1.5
			s-2.8,0.5-4.1,0.5c-3,0-5.3-0.9-7.1-2.6c-1.8-1.7-2.7-4-2.7-6.8c0-2.9,0.9-5.2,2.8-7c1.9-1.8,4.3-2.7,7.4-2.7c2.7,0,5,0.8,6.8,2.5
			c1.8,1.7,2.7,3.7,2.7,6c0,0.7-0.2,1.2-0.5,1.5c-0.3,0.2-1.1,0.4-2.5,0.4H285H271.9z M272,99.2h12.7c-0.2-1.5-0.8-2.8-1.9-3.7
			c-1.1-0.9-2.4-1.4-4-1.4c-1.7,0-3.2,0.5-4.4,1.4C273.2,96.4,272.4,97.6,272,99.2z"/>
		<path d="M310.1,100.5L295.8,94c-0.6-0.3-1-0.5-1.3-0.8c-0.2-0.3-0.4-0.6-0.4-0.9c0-0.4,0.1-0.7,0.3-0.9c0.2-0.2,0.5-0.3,0.9-0.3
			c0.2,0,0.4,0,0.7,0.1c0.2,0.1,0.5,0.2,0.9,0.4l15.5,7.1c0.1,0,0.1,0.1,0.2,0.1c1.2,0.5,1.8,1.1,1.8,1.8c0,0.6-0.6,1.2-1.7,1.8
			c-0.1,0.1-0.2,0.1-0.3,0.1l-15.5,7.2l-0.1,0c-0.7,0.3-1.2,0.4-1.5,0.4c-0.4,0-0.7-0.1-0.9-0.3c-0.2-0.2-0.3-0.5-0.3-0.9
			c0-0.3,0.1-0.6,0.4-0.9c0.2-0.3,0.7-0.5,1.3-0.8L310.1,100.5z"/>
	</g>
	<g>
		<path class="st0" d="M296.4,51.6c-3.8,21.6-21,31-46.5,31c-30.3,0-47.1-16.6-47.1-41.5c0-22,13.7-41.1,48.1-41.1
			c30.8,0,43.9,14.4,45.8,30.6h-34.5c-0.9-5.6-3.1-10.7-11.2-10.7c-8.2,0-12.1,6.8-12.1,21.1c0,10.3,1.9,20.9,12.1,20.9
			c7.9,0,10.4-4.7,11.6-10.3H296.4z"/>
	</g>
</g>
</svg>
